<svg width="501" height="500" viewBox="0 0 501 500" fill="none" xmlns="http://www.w3.org/2000/svg">
<path d="M0.482422 487.5V457.499H235.87V42.5013H0.482422V12.5H500.482V42.5013H265.87V457.499H500.482V487.5H0.482422Z" fill="#336BB7"/>
<path d="M202.745 440.93H0.482422V410.929H172.745V97.3499H0.482422V67.3486H202.745V440.93Z" fill="#F5BD33"/>
<path d="M0.482422 377.14H140.615V122.859H0.482422V152.861H110.615V347.139H0.482422V377.14Z" fill="#336BB7"/>
<path d="M77.9868 321.96H0.482422V291.959H47.9868V208.04H0.482422V178.039H77.9868V321.96Z" fill="#F5BD33"/>
<path d="M298.995 67.3486H500.482V97.3499H328.995V410.929H500.482V440.93H298.995V67.3486Z" fill="#F5BD33"/>
<path d="M500.482 122.859H361.126V377.14H500.482V347.139H391.126V152.861H500.482V122.859Z" fill="#336BB7"/>
<path d="M423.754 178.039H500.482V208.04H453.754V291.959H500.482V321.96H423.754V178.039Z" fill="#F5BD33"/>
</svg>
