<svg width="357" height="358" viewBox="0 0 357 358" fill="none" xmlns="http://www.w3.org/2000/svg">
<path fill-rule="evenodd" clip-rule="evenodd" d="M178.165 25.8411C93.5386 25.8411 24.9351 94.4446 24.9351 179.071C24.9351 263.698 93.5386 332.302 178.165 332.302C262.792 332.302 331.396 263.698 331.396 179.071C331.396 94.4446 262.792 25.8411 178.165 25.8411ZM1.17847 179.071C1.17847 81.3242 80.4182 2.08447 178.165 2.08447C275.913 2.08447 355.152 81.3242 355.152 179.071C355.152 276.819 275.913 356.058 178.165 356.058C80.4182 356.058 1.17847 276.819 1.17847 179.071Z" fill="#87B4E8"/>
<path fill-rule="evenodd" clip-rule="evenodd" d="M178.165 65.0394C115.187 65.0394 64.1336 116.093 64.1336 179.071C64.1336 242.049 115.187 293.103 178.165 293.103C241.143 293.103 292.197 242.049 292.197 179.071C292.197 116.093 241.143 65.0394 178.165 65.0394ZM40.377 179.071C40.377 102.973 102.067 41.2827 178.165 41.2827C254.264 41.2827 315.954 102.973 315.954 179.071C315.954 255.17 254.264 316.86 178.165 316.86C102.067 316.86 40.377 255.17 40.377 179.071Z" fill="#87B4E8"/>
<path fill-rule="evenodd" clip-rule="evenodd" d="M178.165 108.99C139.46 108.99 108.083 140.366 108.083 179.072C108.083 217.777 139.46 249.154 178.165 249.154C216.871 249.154 248.247 217.777 248.247 179.072C248.247 140.366 216.871 108.99 178.165 108.99ZM84.3267 179.072C84.3267 127.246 126.34 85.2329 178.165 85.2329C229.991 85.2329 272.004 127.246 272.004 179.072C272.004 230.897 229.991 272.91 178.165 272.91C126.34 272.91 84.3267 230.897 84.3267 179.072Z" fill="#87B4E8"/>
<path fill-rule="evenodd" clip-rule="evenodd" d="M178.165 152.939C163.733 152.939 152.033 164.639 152.033 179.072C152.033 193.504 163.733 205.204 178.165 205.204C192.598 205.204 204.298 193.504 204.298 179.072C204.298 164.639 192.598 152.939 178.165 152.939ZM128.276 179.072C128.276 151.519 150.612 129.183 178.165 129.183C205.718 129.183 228.054 151.519 228.054 179.072C228.054 206.624 205.718 228.96 178.165 228.96C150.612 228.96 128.276 206.624 128.276 179.072Z" fill="#87B4E8"/>
</svg>
